<svg xmlns="http://www.w3.org/2000/svg" xmlns:xlink="http://www.w3.org/1999/xlink" xmlns:inkscape="http://www.inkscape.org/namespaces/inkscape" version="1.1" width="283.465" height="283.465" viewBox="0 0 283.465 283.465">
<defs>
<clipPath id="clip_1">
<path transform="matrix(1,0,0,-1,0,283.465)" d="M0 283.465H283.465V0H0Z"/>
</clipPath>
</defs>
<g>
<g inkscape:groupmode="layer" inkscape:label="Lager 1">
<g clip-path="url(#clip_1)">
<path transform="matrix(1,0,0,-1,219.7207,26.055909)" d="M0 0C2.553-.793 3.391-3.837 3.833-6.411 6.568-22.342 10.991-38.214 14.998-53.881 24.319-90.332 24.571-147.394-.306-177.823-24.202-207.053-73.647-215.493-110.735-198.935-187.093-164.846-170.849-67.338-167.144-6.338-152.28-21.52-137.416-36.702-122.552-51.884-118.465-56.058-88.042-52.798-81.46-52.973-72.625-53.207-63.7-55.069-54.856-54.043-51.429-53.645-37.899-53.191-35.86-52.167-34.729-51.6-33.988-50.513-33.3-49.471-30.439-45.144-3.95 1.228 0 0" fill="#010303"/>
<path transform="matrix(1,0,0,-1,218.6495,29.941193)" d="M0 0C-.372 .15 .084-.242 .143-.4 .297-.822 .458-1.172 .592-1.621 .879-2.575 1.01-3.574 1.185-4.553 1.756-7.745 2.373-10.928 3.047-14.101 4.332-20.157 5.791-26.176 7.31-32.177 9.809-42.047 12.685-51.849 14.56-61.864 17.823-79.289 18.692-97.295 17.15-114.955 15.67-131.909 11.75-149.369 2.823-164.048-5.816-178.253-19.773-188.213-35.312-193.713-67.405-205.072-105.429-199.433-131.258-176.688-153.383-157.205-162.259-128.161-164.924-99.64-167.656-70.399-164.81-41.068-162.682-11.891-162.453-8.746-162.236-5.6-162.044-2.453-164.336-3.403-166.629-4.352-168.922-5.302-159.98-14.435-151.039-23.568-142.097-32.7-137.685-37.207-133.272-41.715-128.859-46.222-126.152-48.987-123.9-52.033-120.043-53.081-113.915-54.744-106.974-54.252-100.704-54.034-94.456-53.816-88.217-53.257-81.967-53.123-77.319-53.024-72.665-53.646-68.042-54.044-62.812-54.494-57.74-54.499-52.513-54.068-49.013-53.78-45.503-53.631-42.002-53.35-39.069-53.115-35.513-53.185-32.839-51.798-29.152-49.885-26.832-44.495-24.761-41.022-21.72-35.919-18.672-30.819-15.568-25.753-11.788-19.583-7.96-13.428-3.844-7.475-3.029-6.297-2.201-5.127-1.347-3.976-.483-2.811-.695-3.048 .407-1.751 .99-1.066 1.66-.468 2.253 .2 2.866 .891 1.52-.17 2.232 .177 2.448 .282 2.769 .352 2.084 .14 1.499-.041 .894-.204 0 0 5.049-1.15 7.205 6.618 2.142 7.771-2.107 8.738-5.103 4.285-7.323 1.39-10.791-3.129-13.892-7.93-16.947-12.733-22.996-22.241-28.67-31.973-34.506-41.612-34.805-42.106-35.101-42.601-35.41-43.088-35.509-43.243-35.604-43.401-35.708-43.552-35.975-43.944-36.378-44.302-36.634-44.671-36.894-45.045-35.775-44.594-36.624-44.647-39.118-44.8-42.233-45.325-45.256-45.528-48.419-45.741-51.577-45.937-54.733-46.228-60.761-46.783-66.795-46.086-72.798-45.552-86.474-44.337-100.111-46.904-113.797-45.911-115.622-45.779-115.766-45.814-117.41-45.429-117.968-45.299-118.493-45.09-119.042-44.941-118.896-44.981-118.292-45.375-118.769-45.022-119.44-44.527-118.116-45.683-118.632-45.149-123.476-40.136-128.387-35.186-133.264-30.205-143.25-20.004-153.237-9.804-163.224 .396-165.789 3.017-169.896 .919-170.102-2.453-171.943-32.528-175.46-62.574-173.523-92.745-171.553-123.44-163.811-155.318-141.657-177.93-116.026-204.092-76.589-213.021-41.534-204.029-24.18-199.578-7.314-190.431 4.013-176.294 15.294-162.215 21.054-144.515 23.766-126.877 26.697-107.816 26.485-88.411 23.878-69.327 20.867-47.287 13.32-26.179 9.299-4.322 8.354 .82 7.494 5.61 2.142 7.771 .124 8.586-2.285 6.883-2.814 4.956-3.447 2.655-2.026 .818 0 0" fill="#010303"/>
<path transform="matrix(1,0,0,-1,142.2271,139.196)" d="M0 0C-15.721-20.338-50.214-16.49-73.011-5.019-75.955-3.537-79.064-1.911-80.55 .6-59.491 23.429-29.467 24.89-.841 4.282-.11 3.755 .654 3.166 .861 2.408 1.096 1.551 .558 .721 0 0" fill="#fddb0b"/>
<path transform="matrix(1,0,0,-1,139.378,136.3469)" d="M0 0C-8.374-10.621-21.735-13.739-34.718-13.199-41.689-12.908-48.572-11.57-55.234-9.521-58.422-8.541-61.578-7.411-64.625-6.05-67.725-4.666-72.281-3.144-74.222-.216-74.432-1.843-74.642-3.471-74.852-5.098-65.57 4.842-53.38 11.535-39.589 11.891-32.777 12.067-26.097 10.803-19.68 8.549-16.044 7.272-12.551 5.639-9.18 3.773-7.36 2.766-5.577 1.692-3.833 .56-2.64-.215-.352-1.222 .231-2.475 .048-1.797-.136-1.119-.319-.441-.116-.055-.219-.18-.63-.815-1.901-2.583-.937-5.303 .815-6.328 2.845-7.515 5.054-6.655 6.328-4.883 11.585 2.426 .414 7.638-4.73 10.517-10.985 14.018-17.746 16.821-24.748 18.402-37.415 21.262-50.524 20.064-62.255 14.413-69.18 11.077-75.321 6.2-80.55 .6-81.717-.65-82.182-2.771-81.18-4.283-77.454-9.903-70.118-12.568-64.073-14.949-58.353-17.203-52.401-18.89-46.345-19.953-34.473-22.039-21.646-22.135-10.336-17.476-4.091-14.902 1.495-11.03 5.698-5.698 7.044-3.991 7.364-1.666 5.698 0 4.299 1.399 1.355 1.718 0 0" fill="#010303"/>
<path transform="matrix(1,0,0,-1,141.7262,136.983)" d="M0 0C13.614 8.057 30.533 15.32 48.511 13.857 68.111 12.262 75.879 3.017 86.178-9.24 86.677-9.834 87.197-10.526 86.993-11.198 86.808-11.809 86.083-12.182 85.408-12.49 71.957-18.631 55.912-21.632 40.152-19.734 24.392-17.837 9.079-10.775 0 0" fill="#fddb0b"/>
<path transform="matrix(1,0,0,-1,143.7598,140.4621)" d="M0 0C15.047 8.854 32.497 15.745 50.26 12.864 56.781 11.807 62.926 9.435 68.116 5.288 70.521 3.367 72.707 1.169 74.79-1.091 76.984-3.473 80.034-6.174 81.471-9.078 81.287-8.4 81.104-7.722 80.92-7.045 80.924-7.269 80.927-7.494 80.93-7.718 81.114-7.041 81.297-6.363 81.48-5.685 81.366-5.864 81.252-6.044 81.137-6.223 81.619-5.741 82.101-5.26 82.583-4.778 79.712-6.876 75.549-7.938 72.193-8.984 68.378-10.173 64.483-11.103 60.541-11.762 53.001-13.022 45.111-13.196 37.533-12.151 23.789-10.257 9.978-4.352 .815 6.328-2.567 10.271-8.244 4.549-4.883 .63 14.218-21.634 48.683-25.038 75.172-16.49 78.617-15.378 82.179-14.142 85.408-12.49 89.234-10.533 89.931-6.633 87.308-3.32 83.886 1.005 80.188 5.28 76.112 9.004 66.97 17.36 55.596 21.219 43.289 21.534 26.406 21.966 10.248 15.381-4.067 6.958-8.534 4.33-4.484-2.638 0 0" fill="#010303"/>
<path transform="matrix(1,0,0,-1,156.1073,153.00099)" d="M0 0C-11.28 2.23-23.053 2.065-34.262-.48-27.46-10.284-20.341-19.879-12.92-29.247-6.087-19.042 .746-8.836 7.579 1.369" fill="#d95447"/>
<path transform="matrix(1,0,0,-1,157.1785,149.11569)" d="M0 0C-12.087 2.329-24.383 2.188-36.404-.48-38.813-1.015-40.261-4.315-38.812-6.399-31.8-16.489-24.463-26.345-16.84-35.981-15.122-38.153-11.8-37.09-10.512-35.166-3.679-24.961 3.154-14.755 9.987-4.55 12.881-.229 5.903 3.81 3.029-.483-3.804-10.688-10.637-20.893-17.47-31.099L-11.142-30.283C-18.338-21.186-25.235-11.857-31.854-2.332-32.657-4.305-33.459-6.278-34.262-8.251-23.719-5.91-12.751-5.726-2.142-7.771-.008-8.182 2.206-7.17 2.814-4.956 3.356-2.984 2.147-.414 0 0" fill="#010303"/>
<path transform="matrix(1,0,0,-1,107.6392,135.2592)" d="M0 0C6.381-8.367 15.085 2.994 8.528 9.129 2.811 14.448-3.513 4.607 0 0" fill="#010303"/>
<path transform="matrix(1,0,0,-1,104.1601,137.2928)" d="M0 0C.467-.606 .918-1.225 1.452-1.775 1.969-2.306 2.556-2.752 3.149-3.195 3.974-3.813 4.917-4.248 5.894-4.571 6.794-4.869 7.804-5.011 8.751-4.954 10.117-4.871 11.111-4.582 12.342-4.039 14.055-3.282 15.376-1.905 16.44-.4 17.579 1.214 18.1 3.13 18.313 5.065 18.538 7.1 18.024 9.094 17.164 10.923 16.713 11.882 16.034 12.755 15.327 13.534 14.586 14.352 13.674 15.096 12.702 15.617 10.687 16.697 8.222 17.102 6.021 16.333 4.898 15.941 4.02 15.462 3.096 14.749 2.137 14.007 1.447 13.223 .717 12.242-.614 10.455-1.253 8.312-1.507 6.128-1.632 5.051-1.512 3.939-1.28 2.885-1.058 1.872-.623 .833 0 0 .652-.872 1.317-1.551 2.408-1.852 3.372-2.117 4.657-1.997 5.513-1.445 6.373-.891 7.13-.065 7.364 .962 7.589 1.95 7.593 3.217 6.958 4.067 6.726 4.378 6.535 4.709 6.379 5.063 6.514 4.742 6.65 4.421 6.785 4.101 6.602 4.54 6.481 4.996 6.412 5.467 6.46 5.11 6.508 4.753 6.556 4.396 6.476 5.004 6.485 5.613 6.564 6.221 6.516 5.864 6.468 5.507 6.42 5.15 6.523 5.872 6.72 6.571 6.998 7.245 6.862 6.924 6.727 6.603 6.591 6.282 6.889 6.984 7.269 7.644 7.732 8.25 7.522 7.978 7.312 7.706 7.102 7.434 7.48 7.917 7.905 8.355 8.387 8.736 8.115 8.526 7.843 8.316 7.571 8.106 7.966 8.408 8.389 8.665 8.847 8.861 8.526 8.726 8.205 8.591 7.884 8.455 8.254 8.607 8.633 8.714 9.028 8.773 8.671 8.725 8.314 8.677 7.957 8.629 8.33 8.677 8.7 8.679 9.074 8.634 8.717 8.682 8.359 8.73 8.002 8.778 8.399 8.722 8.78 8.616 9.151 8.465 8.83 8.601 8.509 8.736 8.188 8.872 8.637 8.679 9.049 8.43 9.439 8.137L8.624 8.767C9.156 8.352 9.629 7.874 10.042 7.341 9.832 7.613 9.622 7.884 9.412 8.156 9.779 7.669 10.085 7.148 10.325 6.587 10.19 6.908 10.054 7.229 9.919 7.55 10.148 6.992 10.305 6.415 10.39 5.818 10.342 6.175 10.294 6.532 10.246 6.889 10.328 6.251 10.325 5.613 10.243 4.975 10.291 5.332 10.339 5.689 10.387 6.046 10.295 5.395 10.123 4.763 9.874 4.155 10.01 4.475 10.145 4.796 10.28 5.117 10.02 4.5 9.686 3.923 9.277 3.392 9.487 3.664 9.697 3.936 9.907 4.208 9.558 3.767 9.165 3.369 8.721 3.024 8.992 3.234 9.264 3.444 9.536 3.654 9.145 3.358 8.726 3.111 8.275 2.92 8.596 3.055 8.917 3.19 9.237 3.326 8.839 3.164 8.428 3.051 8.002 2.992 8.359 3.04 8.716 3.088 9.073 3.136 8.663 3.086 8.257 3.087 7.847 3.138 8.204 3.09 8.561 3.042 8.918 2.994 8.482 3.057 8.063 3.175 7.655 3.342 7.976 3.207 8.297 3.071 8.617 2.936 8.098 3.158 7.621 3.451 7.174 3.795 7.446 3.585 7.718 3.375 7.99 3.165 7.397 3.637 6.878 4.184 6.409 4.777 6.619 4.506 6.829 4.234 7.039 3.962 7.012 3.997 6.985 4.032 6.958 4.067 6.705 4.537 6.359 4.914 5.92 5.198 5.531 5.554 5.075 5.794 4.55 5.919 3.586 6.185 2.301 6.065 1.445 5.513 .585 4.958-.172 4.132-.406 3.105-.629 2.127-.644 .835 0 0" fill="#010303"/>
<path transform="matrix(1,0,0,-1,179.3789,141.0262)" d="M0 0C.168 .246 .31 .495 .43 .747 3.281 6.753-5.751 13.776-10.855 7.279-15.757 1.04-5.145-7.532 0 0" fill="#010303"/>
<path transform="matrix(1,0,0,-1,182.858,143.05989)" d="M0 0C1.413 2.14 1.738 4.682 1.305 7.162 .963 9.115-.134 10.93-1.454 12.377-4.159 15.342-8.824 16.87-12.658 15.363-15.029 14.432-17.063 12.8-18.342 10.565-19.516 8.512-19.791 6.288-19.426 3.986-19.126 2.089-18.112 .435-16.913-1.022-15.681-2.522-14.003-3.532-12.228-4.249-10.298-5.029-8.057-5.143-6.047-4.603-3.464-3.909-1.495-2.151 0 0 .569 .819 .662 2.175 .406 3.105 .149 4.039-.574 5.052-1.445 5.513-2.381 6.007-3.513 6.254-4.55 5.919-5.593 5.581-6.332 4.968-6.958 4.067-7.043 3.946-7.129 3.826-7.217 3.708L-6.587 4.523C-6.973 4.024-7.402 3.573-7.896 3.179L-7.08 3.809C-7.493 3.492-7.932 3.227-8.409 3.018L-7.446 3.425C-7.929 3.224-8.426 3.09-8.944 3.019-8.587 3.067-8.23 3.115-7.873 3.163-8.378 3.105-8.88 3.11-9.385 3.172-9.028 3.124-8.671 3.076-8.314 3.028-8.926 3.114-9.516 3.282-10.086 3.522-9.765 3.386-9.444 3.251-9.123 3.115-9.729 3.381-10.292 3.718-10.816 4.122-10.544 3.911-10.272 3.701-10 3.491-10.518 3.902-10.98 4.367-11.385 4.89-11.175 4.618-10.965 4.346-10.755 4.074-11.102 4.537-11.395 5.03-11.628 5.56L-11.222 4.597C-11.429 5.091-11.576 5.599-11.656 6.128-11.608 5.771-11.56 5.414-11.512 5.057-11.578 5.556-11.581 6.051-11.517 6.55-11.565 6.193-11.613 5.836-11.661 5.479-11.59 5.962-11.459 6.425-11.27 6.876L-11.676 5.913C-11.459 6.404-11.183 6.855-10.855 7.279-11.065 7.007-11.275 6.736-11.485 6.464-11.077 6.974-10.625 7.435-10.109 7.836L-10.924 7.206C-10.497 7.524-10.044 7.79-9.553 7.999-9.874 7.864-10.195 7.728-10.516 7.593-10.056 7.777-9.585 7.904-9.095 7.975-9.452 7.927-9.809 7.879-10.166 7.831-9.65 7.894-9.139 7.892-8.624 7.829-8.981 7.877-9.338 7.925-9.695 7.973-9.104 7.889-8.537 7.73-7.986 7.502-8.306 7.637-8.627 7.773-8.948 7.908-8.36 7.653-7.814 7.33-7.305 6.941-7.576 7.151-7.848 7.361-8.12 7.571-7.616 7.174-7.165 6.726-6.768 6.222-6.978 6.494-7.188 6.766-7.398 7.038-7.013 6.533-6.693 5.992-6.446 5.406-6.581 5.727-6.717 6.048-6.852 6.369-6.662 5.895-6.526 5.409-6.448 4.904-6.496 5.261-6.544 5.618-6.592 5.975-6.524 5.464-6.519 4.956-6.582 4.444-6.534 4.801-6.486 5.158-6.438 5.515-6.509 5.021-6.64 4.549-6.829 4.088-6.693 4.408-6.558 4.729-6.422 5.05-6.573 4.704-6.75 4.382-6.958 4.067-8.122 2.305-7.365-.467-5.513-1.445-3.493-2.512-1.242-1.881 0 0" fill="#010303"/>
<path transform="matrix(1,0,0,-1,56.5043,100.1275)" d="M0 0C11.438 1.456 22.27 6.208 31.525 13.829 20.876 23.918 10.027 33.615-1.002 42.901-2.806 27.035-4.61 11.169-6.414-4.697" fill="#d95447"/>
<path transform="matrix(1,0,0,-1,56.5043,104.15669)" d="M0 0C12.814 1.717 24.352 6.858 34.374 15.009 36.034 16.358 35.832 19.328 34.374 20.707 23.809 30.704 12.968 40.404 1.847 49.779-.975 52.158-4.63 50.463-5.032 46.93-6.835 31.064-8.639 15.199-10.443-.667-10.689-2.833-8.415-4.697-6.414-4.697-4.031-4.697-2.632-2.839-2.385-.667-.581 15.199 1.223 31.064 3.027 46.93 .734 45.981-1.559 45.031-3.851 44.081 7.27 34.706 18.111 25.006 28.676 15.009V20.707C20.494 14.053 10.487 9.464 0 8.058-2.156 7.769-4.029 6.413-4.029 4.029-4.029 2.077-2.172-.291 0 0" fill="#010303"/>
<path transform="matrix(1,0,0,-1,221.4576,93.56819)" d="M0 0C-11.53 .344-22.793 4.026-32.778 10.715-23.209 21.783-13.401 32.48-3.372 42.786 .039 27.173 3.45 11.56 6.861-4.054" fill="#d95447"/>
<path transform="matrix(1,0,0,-1,221.4576,89.539)" d="M0 0C-11.08 .406-21.525 4.071-30.745 10.165L-29.929 3.836C-20.434 14.805-10.634 25.504-.523 35.908-2.768 36.501-5.013 37.093-7.258 37.686-3.847 22.073-.436 6.459 2.975-9.154 4.082-14.218 11.852-12.075 10.746-7.012 7.335 8.601 3.924 24.215 .513 39.828-.138 42.807-4.185 43.701-6.221 41.606-16.333 31.202-26.133 20.504-35.627 9.535-37.385 7.504-37.086 4.709-34.812 3.206-24.422-3.66-12.456-7.603 0-8.058 5.186-8.248 5.179-.19 0 0" fill="#010303"/>
<path transform="matrix(1,0,0,-1,177.6422,184.1893)" d="M0 0C-1.297-11.085-7.046-21.619-15.756-28.867-38.888-48.118-73.88-25.491-72.754 1.872-72.733 2.361-5.295 .115 0 0" fill="#fddb0b"/>
<path transform="matrix(1,0,0,-1,173.613,184.1893)" d="M0 0C-1.81-14.288-12.62-29.672-27.658-31.793-39.434-33.455-51.649-26.916-58.485-17.522-62.621-11.838-64.916-5.179-64.696 1.872-64.879 1.194-65.062 .516-65.246-.162-65.244-.16-65.242-.157-65.24-.155L-66.686-1.6C-67.289-1.866-69.455-2.061-67.969-2.097-67.435-2.11-66.898-2.087-66.364-2.089-64.597-2.095-62.83-2.13-61.063-2.165-55.651-2.271-50.24-2.417-44.83-2.567-32.227-2.915-19.625-3.308-7.023-3.698-3.339-3.813 .345-3.947 4.029-4.029 9.217-4.146 9.215 3.913 4.029 4.029-17.086 4.503-38.191 5.406-59.308 5.858-62.292 5.921-65.345 6.141-68.328 5.951-76.248 5.446-72.016-8.23-70.202-12.778-64.254-27.691-49.749-38.821-33.632-39.986-11.111-41.614 5.442-20.649 8.058 0 8.332 2.162 6.01 4.029 4.029 4.029 1.624 4.029 .275 2.169 0 0" fill="#010303"/>
<path transform="matrix(1,0,0,-1,138.2717,185.8792)" d="M0 0V-28.507C0-30.684 1.852-32.536 4.029-32.536 6.214-32.536 8.058-30.692 8.058-28.507V0C8.058 2.177 6.207 4.029 4.029 4.029 1.844 4.029 0 2.185 0 0" fill="#010303"/>
<path transform="matrix(1,0,0,-1,120.5316,185.8792)" d="M0 0V-30.235C0-35.42 8.058-35.429 8.058-30.235V0C8.058 5.185 0 5.194 0 0" fill="#010303"/>
<path transform="matrix(1,0,0,-1,156.8987,185.01529)" d="M0 0V-28.507C0-30.685 1.852-32.536 4.029-32.536 6.214-32.536 8.058-30.692 8.058-28.507V0C8.058 2.177 6.207 4.029 4.029 4.029 1.844 4.029 0 2.185 0 0" fill="#010303"/>
<path transform="matrix(1,0,0,-1,38.679,140.4977)" d="M0 0C13.575 2.285 7.273-18.836 20.936-20.077 30.079-20.908 47.925-20.422 55.939-25.022 57.78-26.078 58.761-28.098 59.582-30.019 61.612-34.77 68.771-48.829 66.807-53.856 64.658-59.354 49.94-59.578 43.728-60.892 25.356-64.779 7.168-69.482-10.784-74.916" fill="#faf6ec"/>
<path transform="matrix(1,0,0,-1,28.4638,193.1665)" d="M0 0C24.23 5.631 49.028 8.214 73.899 7.773 79.086 7.681 79.087 15.739 73.899 15.831 48.337 16.285 22.759 13.557-2.142 7.771-7.192 6.597-5.054-1.174 0 0" fill="#010303"/>
<path transform="matrix(1,0,0,-1,255.1067,161.53839)" d="M0 0-75.969-6.659C-76.782-6.73-77.684-6.845-78.207-7.456-78.833-8.187-78.627-9.268-78.433-10.202-77.022-16.977-77.767-29.543-80.084-36.047-54.141-41.051-28.462-47.835-3.41-56.071" fill="#faf6ec"/>
<path transform="matrix(1,0,0,-1,260.9324,185.6547)" d="M0 0C-27.037-1.623-53.587 6.11-80.613 5.218-85.785 5.048-85.808-3.012-80.613-2.84-53.587-1.949-27.037-9.681 0-8.058 5.153-7.749 5.189 .311 0 0" fill="#010303"/>
<path transform="matrix(1,0,0,-1,20.3841,163.988)" d="M0 0C26.131 .88 52.291 .277 78.354-1.807 77.058-.821 75.763 .165 74.468 1.151 76.08-3.591 77.691-8.334 79.303-13.076 80.055-15.289 80.807-17.502 81.559-19.715 82.201-21.605 82.63-24.519 83.73-26.14 83.766-27.04 83.934-27.136 84.233-26.429 84.038-26.53 83.835-26.612 83.625-26.673 82.67-26.788 81.563-27.38 80.648-27.691 78.498-28.422 76.344-29.141 74.186-29.848 69.714-31.313 65.225-32.725 60.721-34.085 42.841-39.482 24.714-44.036 6.416-47.775 1.338-48.813 3.487-56.582 8.558-55.546 28.764-51.417 48.761-46.291 68.447-40.14 73.248-38.64 78.029-37.081 82.791-35.461 87.196-33.963 92.315-32.257 91.968-26.582 91.818-24.129 90.755-21.768 89.974-19.47 89.115-16.941 88.255-14.412 87.396-11.882 85.677-6.824 83.958-1.765 82.239 3.293 81.624 5.104 80.223 6.102 78.354 6.251 52.291 8.335 26.131 8.939 0 8.058-5.172 7.884-5.195-.175 0 0" fill="#010303"/>
<path transform="matrix(1,0,0,-1,252.5031,214.32419)" d="M0 0C-25.239 6.195-50.478 12.39-75.717 18.585-74.731 17.29-73.745 15.995-72.759 14.7-72.674 24.901-72.742 35.118-72.503 45.316-72.469 46.77-72.747 47.612-71.256 47.737-69.062 47.922-66.805 47.782-64.605 47.785-59.643 47.792-54.682 47.79-49.721 47.799-29.597 47.836-9.458 48.086 10.602 49.834 15.729 50.28 15.776 58.343 10.602 57.892-6.493 56.403-23.651 55.994-40.804 55.89-49.4 55.838-57.996 55.857-66.591 55.84-70.182 55.833-74.19 56.141-77.205 53.824-80.384 51.38-80.543 47.523-80.574 43.835-80.655 34.123-80.736 24.412-80.818 14.7-80.832 12.975-79.56 11.232-77.86 10.815-52.62 4.62-27.381-1.575-2.142-7.771 2.894-9.007 5.042-1.238 0 0" fill="#010303"/>
<path transform="matrix(1,0,0,-1,182.5021,204.42609)" d="M0 0C5.855-9.837 14.392-18.147 24.503-23.834 19.889-21.238-.213-49.762-1.72-53.095-3.48-43-12.887-36.133-21.556-30.341-23.722-28.894-25.887-27.448-28.053-26.001-16.492-19.042-6.04-11.68-.501 .857-.336 .57-.169 .285 0 0" fill="#ffffff"/>
<path transform="matrix(1,0,0,-1,179.023,206.4598)" d="M0 0C6.343-10.506 15.292-19.199 25.948-25.279 27.304-22.96 28.66-20.64 30.016-18.321 26.295-16.525 22.96-18.798 20.168-21.186 16.951-23.937 14.187-27.254 11.526-30.529 8.513-34.236 5.63-38.055 2.875-41.957 1.285-44.21-.537-46.519-1.72-49.027 .735-49.348 3.189-49.669 5.644-49.99 2.891-35.775-11.521-27.85-22.54-20.488V-27.446C-10.767-20.338 .619-12.026 6.457 .857H-.501C-.334 .572-.167 .286 0 0 2.616-4.475 9.584-.423 6.958 4.067 6.791 4.353 6.624 4.639 6.457 4.925 5.049 7.333 .785 7.763-.501 4.925-5.804-6.779-15.914-14.031-26.607-20.488-29.306-22.118-29.108-25.776-26.607-27.446-17.404-33.596-4.435-40.213-2.126-52.132-1.489-55.42 3.786-56.174 5.238-53.095 6.208-51.037 7.664-49.141 8.954-47.281 11.171-44.085 13.474-40.943 15.888-37.893 18.375-34.752 20.946-31.647 23.79-28.82 24.372-28.241 24.965-27.673 25.581-27.132 25.857-26.89 26.135-26.649 26.422-26.42 25.755-26.953 26.499-26.36 26.66-26.255 26.937-26.074 27.243-25.913 27.51-25.72 28.14-25.264 27.396-25.702 27.426-25.712 27.405-25.705 28.563-25.624 27.567-25.616 27.165-25.612 26.723-25.653 25.948-25.279 30.564-27.506 34.578-20.924 30.016-18.321 20.529-12.908 12.608-5.29 6.958 4.067 4.281 8.502-2.69 4.455 0 0" fill="#010303"/>
<path transform="matrix(1,0,0,-1,97.4807,160.7883)" d="M0 0C5.22-10.17 13.214-18.978 22.944-25.262 18.503-22.394-3.37-49.655-5.085-52.89-6.202-42.709-15.154-35.288-23.44-28.986-25.51-27.412-27.579-25.838-29.649-24.263-17.668-18.013-6.77-11.294-.446 .886-.3 .589-.151 .294 0 0" fill="#ffffff"/>
<path transform="matrix(1,0,0,-1,94.0016,162.8219)" d="M0 0C5.673-10.881 14.14-19.996 24.39-26.708 25.745-24.388 27.101-22.069 28.457-19.75 25.189-17.917 21.711-19.85 19.061-21.858 15.468-24.581 12.3-27.816 9.252-31.124 6.118-34.526 3.114-38.052 .228-41.666-1.59-43.942-3.671-46.255-5.085-48.822-2.582-49.5-.079-50.178 2.423-50.856 .482-35.824-13.023-27.204-24.136-18.751V-25.709C-11.902-19.305-.143-11.643 6.512 .886H-.446C-.297 .591-.149 .295 0 0 2.332-4.633 9.286-.558 6.958 4.067 6.81 4.363 6.661 4.658 6.512 4.953 5.167 7.625 .925 7.534-.446 4.953-6.468-6.384-17.155-12.967-28.203-18.751-31.158-20.298-30.435-24.011-28.203-25.709-23.227-29.494-18.074-33.143-13.587-37.518-9.899-41.115-6.318-45.567-5.635-50.856-5.167-54.482-.258-56.76 1.873-52.89 3.091-50.677 4.394-49.29 5.655-47.705 8.184-44.523 10.809-41.414 13.525-38.39 16.231-35.377 19.021-32.403 22.074-29.735 23.449-28.533 23.56-28.358 25.089-27.454 25.335-27.308 25.591-27.18 25.84-27.039 26.526-26.651 25.127-27.094 25.784-27.068 26.791-27.027 25.273-26.973 25.586-27.049 25.211-26.959 24.939-27.016 24.39-26.708 28.944-29.262 32.778-22.579 28.457-19.75 19.331-13.774 11.998-5.598 6.958 4.067 4.56 8.667-2.397 4.598 0 0" fill="#010303"/>
<path transform="matrix(1,0,0,-1,114.4995,206.3572)" d="M0 0C17.424 0 34.848-.001 52.272-.001 57.458-.001 57.466 8.057 52.272 8.057 34.848 8.058 17.424 8.058 0 8.058-5.185 8.059-5.194 0 0 0" fill="#010303"/>
</g>
</g>
</g>
</svg>
